<?xml version="1.0" encoding="UTF-8"?>
<svg version="1.1" xmlns="http://www.w3.org/2000/svg" width="1920" height="1080">
<path d="M0 0 C633.6 0 1267.2 0 1920 0 C1920 356.4 1920 712.8 1920 1080 C1286.4 1080 652.8 1080 0 1080 C0 723.6 0 367.2 0 0 Z " fill="#000000" transform="translate(0,0)" fill-opacity="0.0"/>
<path d="M0 0 C321.75 0 643.5 0 975 0 C975 136.62 975 273.24 975 414 C688.23 414 401.46 414 106 414 C109.62987592 411.27759306 112.45774212 409.83209208 116.609375 408.14453125 C117.927625 407.60323871 119.24581956 407.06181115 120.56396484 406.52026367 C121.24851746 406.24137299 121.93307007 405.9624823 122.6383667 405.67514038 C154.23692938 393.6283939 154.23692938 393.6283939 174.09765625 367.41796875 C177.97597858 355.67476952 177.52723918 342.05812119 172.4765625 330.828125 C165.84676332 318.12977948 156.83048054 309.64444935 143.12109375 305.03125 C125.31108866 300.01565535 111.12253201 305.69379222 94.8125 312.625 C93.2348442 313.2895157 91.65695773 313.95348398 90.07885742 314.61694336 C85.90039243 316.37615272 81.72588553 318.14454753 77.55273438 319.9163208 C75.01870756 320.99205832 72.48405361 322.06630479 69.94921875 323.14013672 C55.82773292 329.12375922 41.71443161 335.12665337 27.61351013 341.15858459 C24.51597868 342.48296681 21.41731745 343.8046912 18.31845093 345.12594604 C16.86639168 345.74594252 15.41490505 346.36728196 13.96401978 346.99002075 C11.97996539 347.84159635 9.994123 348.68885943 8.0078125 349.53515625 C6.33162842 350.25264038 6.33162842 350.25264038 4.62158203 350.98461914 C2 352 2 352 0 352 C0 235.84 0 119.68 0 0 Z " fill="#DFEBFB" transform="translate(717,66)"/>
<path d="M0 0 C155.43 0 310.86 0 471 0 C471 117.48 471 234.96 471 356 C315.57 356 160.14 356 0 356 C0 238.52 0 121.04 0 0 Z " fill="#B3D2FE" transform="translate(1176,94)"/>
<path d="M0 0 C2.63440492 -0.00599111 5.26879848 -0.01274252 7.90319824 -0.02035522 C14.2926354 -0.03688202 20.68203564 -0.04246095 27.0714924 -0.04357998 C32.27079362 -0.04453429 37.47008279 -0.04866355 42.66938019 -0.05498123 C57.44759678 -0.0725698 72.22578447 -0.08182367 87.0040116 -0.08032028 C87.79868387 -0.08024037 88.59335613 -0.08016046 89.41210938 -0.08007812 C90.60559216 -0.07995548 90.60559216 -0.07995548 91.82318571 -0.07983036 C104.71164516 -0.07901782 117.59998766 -0.09815382 130.4884133 -0.12635486 C143.75865087 -0.15515965 157.02883153 -0.16889103 170.29910111 -0.16716731 C177.73472687 -0.16650609 185.17022994 -0.17187996 192.60582733 -0.19352341 C198.93686622 -0.21183544 205.26772678 -0.216001 211.59878084 -0.20250456 C214.82129391 -0.1960253 218.04339909 -0.19789517 221.26589203 -0.21321106 C250.2609845 -0.34201354 275.70590598 5.549307 297.15722656 26.35302734 C312.45542932 41.78425795 322.93799189 64.5445797 323.21411133 86.39746094 C323.22401093 87.08108704 323.23391052 87.76471313 323.24411011 88.46905518 C323.27547669 90.7089909 323.30038325 92.94894776 323.32519531 95.18896484 C323.34578635 96.74981205 323.36678336 98.31065395 323.38816833 99.87149048 C323.44316711 103.96490155 323.49267356 108.05836109 323.54101562 112.15185547 C323.59139347 116.33484167 323.64699425 120.51775813 323.70214844 124.70068359 C323.80945824 132.89723909 323.91096269 141.0938532 324.00878906 149.29052734 C324.95665283 148.88301743 325.9045166 148.47550751 326.88110352 148.0556488 C345.91806164 139.87193227 364.9807646 131.75230124 384.07455444 123.70199585 C396.58209039 118.4285447 409.08367819 113.14168305 421.5736084 107.82666016 C428.14842976 105.02917238 434.72487507 102.23550239 441.30108643 99.44128418 C444.19326814 98.21212488 447.0851529 96.98226832 449.97705078 95.75244141 C455.12850819 93.56223237 460.28164589 91.37601477 465.43579102 89.19213867 C467.42068958 88.35043608 469.40507717 87.50752733 471.38891602 86.66333008 C474.15537165 85.48633067 476.92365185 84.31372495 479.69238281 83.14208984 C480.50315781 82.79598663 481.3139328 82.44988342 482.14927673 82.09329224 C498.68312971 75.11861675 512.61434244 72.91068716 530.00878906 79.29052734 C541.01913045 84.80251981 548.42242687 92.40758544 554.00878906 103.29052734 C554.42515625 104.10005859 554.84152344 104.90958984 555.27050781 105.74365234 C560.20293049 117.02765089 559.44301517 130.90844509 555.32910156 142.32958984 C550.07820834 154.10526163 542.83932442 162.1412886 531.26660156 167.85302734 C530.58196335 168.19254929 529.89732513 168.53207123 529.19194031 168.88188171 C518.59439553 174.04683668 507.68002494 178.5232444 496.82128906 183.10302734 C494.41624141 184.12180562 492.01137766 185.14101814 489.60668945 186.16064453 C483.54872115 188.72778718 477.48818929 191.28880914 471.42663574 193.84747314 C467.25146891 195.61027663 463.07741213 197.37569688 458.90342712 199.14129639 C447.85594445 203.81405753 436.8038596 208.47587084 425.75054932 213.13482666 C417.37757476 216.66418427 409.00532282 220.19525358 400.63378906 223.72802734 C399.71438538 224.11599487 398.79498169 224.5039624 397.84771729 224.90368652 C384.01101598 230.74368521 370.18584284 236.61045115 356.36752319 242.49380493 C353.36322538 243.77267587 350.35854334 245.05064 347.35375977 246.32836914 C335.87030694 251.21174948 335.87030694 251.21174948 324.40412903 256.13549805 C322.50331307 256.95556824 320.60137346 257.7729651 318.69897461 258.58935547 C316.53380441 259.51958833 314.37097382 260.45529716 312.21118164 261.39794922 C311.2948999 261.79046875 310.37861816 262.18298828 309.43457031 262.58740234 C308.28081909 263.08771973 308.28081909 263.08771973 307.10375977 263.59814453 C305.00878906 264.29052734 305.00878906 264.29052734 301.00878906 264.29052734 C299.46054673 262.07393486 298.20773876 259.97608286 296.94628906 257.60302734 C283.69947369 234.22253707 261.53324586 216.52151874 235.82128906 208.54052734 C234.72071167 208.25592651 234.72071167 208.25592651 233.59790039 207.96557617 C231.87006913 207.51508551 230.14991353 207.0340723 228.43896484 206.52319336 C220.23731393 204.20328146 212.56066215 203.87045799 204.07128906 203.97802734 C202.80349609 203.97480469 201.53570313 203.97158203 200.22949219 203.96826172 C188.86477478 204.03233752 177.91116207 205.19200087 167.13378906 208.91552734 C165.99744019 209.30466309 165.99744019 209.30466309 164.83813477 209.70166016 C151.6529611 214.3979384 140.77024601 221.45829517 130.00878906 230.29052734 C129.35652344 230.77779297 128.70425781 231.26505859 128.03222656 231.76708984 C109.21470587 246.30384753 97.57633348 272.66903305 93.45410156 295.34130859 C90.31715894 323.16103661 94.47934464 350.96340006 110.66113281 374.25927734 C112.00878906 376.29052734 112.00878906 376.29052734 113.00878906 379.29052734 C112.46577148 379.39075195 111.92275391 379.49097656 111.36328125 379.59423828 C96.81368695 382.30958787 83.8378496 385.83720213 70.38378906 392.10302734 C69.51246338 392.50537598 68.6411377 392.90772461 67.7434082 393.32226562 C61.16573683 396.47045725 56.15096556 399.9910038 50.00878906 404.29052734 C23.93878906 404.29052734 -2.13121094 404.29052734 -28.99121094 404.29052734 C-28.99121094 301.99052734 -28.99121094 199.69052734 -28.99121094 94.29052734 C-30.31121094 94.29052734 -31.63121094 94.29052734 -32.99121094 94.29052734 C-32.99121094 195.93052734 -32.99121094 297.57052734 -32.99121094 402.29052734 C-38.75978934 402.29052734 -42.34296159 401.86022215 -47.49121094 399.85302734 C-48.18335693 399.58425781 -48.87550293 399.31548828 -49.58862305 399.03857422 C-74.06441506 389.13812887 -90.46376968 371.1930947 -100.99121094 347.29052734 C-104.8997344 337.37321062 -106.14042615 328.51947551 -106.13838196 317.95155334 C-106.14205865 316.92372268 -106.14573533 315.89589201 -106.14952344 314.83691496 C-106.1605188 311.39965368 -106.16439709 307.96242268 -106.16821289 304.52514648 C-106.17448074 302.05749415 -106.18112782 299.58984275 -106.18812561 297.12219238 C-106.2073186 289.72267036 -106.21794902 282.32315638 -106.2268534 274.9236168 C-106.23124576 271.43152873 -106.2366101 267.93944216 -106.24184227 264.44735527 C-106.25884895 252.82600374 -106.27334057 241.20465311 -106.28059101 229.58329105 C-106.28250063 226.57155926 -106.284421 223.55982747 -106.28637695 220.5480957 C-106.28710256 219.42539061 -106.28710256 219.42539061 -106.28784283 218.28000461 C-106.29613375 206.16970742 -106.32145728 194.05950929 -106.35395763 181.9492553 C-106.38711514 169.49169776 -106.4050476 157.03419043 -106.40823525 144.57658857 C-106.41039235 137.59193644 -106.41902278 130.60742878 -106.44469643 123.6228199 C-106.46881755 117.04574704 -106.47217489 110.46888605 -106.46193504 103.89176178 C-106.4614417 101.48769454 -106.46770226 99.08361416 -106.48149109 96.67958641 C-106.56824957 80.64690753 -106.06150672 65.43185821 -98.24121094 50.97802734 C-97.89977051 50.3219751 -97.55833008 49.66592285 -97.20654297 48.98999023 C-94.01209088 43.01263675 -90.21920581 37.58447855 -85.99121094 32.29052734 C-85.54777344 31.68337891 -85.10433594 31.07623047 -84.64746094 30.45068359 C-72.08825978 14.17732843 -50.1620168 3.61262071 -30.27336884 0.69782639 C-20.25950365 -0.4117924 -10.05833962 -0.00456905 0 0 Z " fill="#326DB3" transform="translate(335.9912109375,292.70947265625)"/>
<path d="M0 0 C1.80552886 -0.00243486 3.61105635 -0.00616086 5.4165802 -0.01106262 C10.26966315 -0.02037759 15.12254109 -0.01112762 19.97560787 0.00226951 C25.08019432 0.01368163 30.18477211 0.0094692 35.28936768 0.00752258 C43.85293888 0.00664299 52.41643042 0.01765232 60.97998047 0.03613281 C70.85486753 0.05732232 80.72963825 0.0608025 90.60454345 0.05457085 C100.14385103 0.04886125 109.68311801 0.05453991 119.22241974 0.0657444 C123.26516731 0.07036651 127.30788986 0.07127469 131.35063934 0.06915855 C136.11471965 0.06726415 140.87868283 0.07546747 145.64273643 0.09121895 C147.38249158 0.09543232 149.12225869 0.09633242 150.86201668 0.09352875 C175.49895369 0.05987046 197.58778232 5.50549719 216.39160156 22.37231445 C217.2978125 23.18442383 218.20402344 23.9965332 219.13769531 24.83325195 C234.94444513 39.78499034 245.82553004 60.91042943 246.49757195 82.82843781 C246.5571087 87.07729727 246.58435781 91.32526636 246.6003418 95.57446289 C246.60989643 97.20672294 246.61978825 98.83898105 246.62998962 100.47123718 C246.66120163 105.80803067 246.6816282 111.14483888 246.70019531 116.48168945 C246.70349263 117.39401872 246.70678996 118.30634798 246.7101872 119.24632359 C246.74097025 127.87354566 246.76763761 136.50077165 246.78460598 145.12803268 C246.80645448 156.10182592 246.84832877 167.0751265 246.91804355 178.04872298 C246.96557232 185.79778536 246.98957797 193.54671624 246.99680287 201.29591966 C247.00171712 205.90717231 247.01638801 210.51786795 247.05654716 215.12895966 C247.30239477 244.76093159 245.31376725 271.34666353 224.39160156 294.37231445 C223.58078125 295.27594727 222.76996094 296.17958008 221.93457031 297.1105957 C212.83077872 306.74755225 201.69612288 314.31322408 189.39160156 319.37231445 C188.73160156 319.37231445 188.07160156 319.37231445 187.39160156 319.37231445 C187.39160156 238.85231445 187.39160156 158.33231445 187.39160156 75.37231445 C186.40160156 75.37231445 185.41160156 75.37231445 184.39160156 75.37231445 C184.39160156 156.22231445 184.39160156 237.07231445 184.39160156 320.37231445 C174.73284716 323.59189926 166.8755316 324.52905283 156.92456055 324.48583984 C155.57659645 324.48605888 155.57659645 324.48605888 154.20140076 324.48628235 C151.26347344 324.48559178 148.32561141 324.47783989 145.38769531 324.4699707 C143.33789606 324.46810348 141.28809637 324.46668101 139.23829651 324.46568298 C133.86749011 324.46188179 128.49671115 324.45207218 123.12591553 324.440979 C117.63570527 324.43071313 112.14549054 324.42617431 106.65527344 324.42114258 C95.90070415 324.41044758 85.14615515 324.39340022 74.39160156 324.37231445 C74.36490891 323.80802231 74.33821625 323.24373016 74.31071472 322.66233826 C74.18691554 320.06428344 74.06075694 317.46634811 73.93457031 314.8684082 C73.8926355 313.98100952 73.85070068 313.09361084 73.80749512 312.17932129 C71.97638373 274.7575942 57.81181783 241.39268341 29.94433594 215.74731445 C9.41640998 197.56912594 -15.71190295 187.25358089 -42.60839844 183.37231445 C-42.34027344 182.90825195 -42.07214844 182.44418945 -41.79589844 181.96606445 C-29.68709351 160.61632944 -22.15987231 141.2384662 -22.17089844 116.30981445 C-22.17016327 115.58376007 -22.1694281 114.85770569 -22.16867065 114.10964966 C-22.2001551 102.24523443 -23.32821137 91.5077823 -27.60839844 80.37231445 C-27.86008789 79.68476074 -28.11177734 78.99720703 -28.37109375 78.28881836 C-35.39408139 59.4327591 -47.4942936 44.10497822 -62.65917969 31.0637207 C-65.10271897 28.94337499 -67.35831838 26.69497774 -69.60839844 24.37231445 C-50.41279596 5.27827601 -26.15359725 -0.12540706 0 0 Z " fill="#326DB3" transform="translate(1307.6083984375,698.627685546875)"/>
<path d="M0 0 C1.80552886 -0.00243486 3.61105635 -0.00616086 5.4165802 -0.01106262 C10.26966315 -0.02037759 15.12254109 -0.01112762 19.97560787 0.00226951 C25.08019432 0.01368163 30.18477211 0.0094692 35.28936768 0.00752258 C43.85293888 0.00664299 52.41643042 0.01765232 60.97998047 0.03613281 C70.85486753 0.05732232 80.72963825 0.0608025 90.60454345 0.05457085 C100.14385103 0.04886125 109.68311801 0.05453991 119.22241974 0.0657444 C123.26516731 0.07036651 127.30788986 0.07127469 131.35063934 0.06915855 C136.11471965 0.06726415 140.87868283 0.07546747 145.64273643 0.09121895 C147.38249158 0.09543232 149.12225869 0.09633242 150.86201668 0.09352875 C170.51401054 0.06668075 189.79748524 3.04105703 206.39160156 14.37231445 C206.72160156 15.36231445 207.05160156 16.35231445 207.39160156 17.37231445 C206.66457031 17.70102539 205.93753906 18.02973633 205.18847656 18.3684082 C179.68453021 30.43373667 161.31475598 51.92578999 150.57910156 77.68481445 C140.97059202 104.9422877 141.18316449 136.28769682 153.61035156 162.66333008 C154.18269531 163.84958984 154.18269531 163.84958984 154.76660156 165.05981445 C155.14042969 165.86225586 155.51425781 166.66469727 155.89941406 167.49145508 C157.73607549 171.34404113 159.65223571 174.88416161 162.18066406 178.3293457 C164.39160156 181.37231445 164.39160156 181.37231445 164.39160156 183.37231445 C163.37324219 183.51926758 162.35488281 183.6662207 161.30566406 183.81762695 C127.01742493 189.10692277 96.01376332 206.66914697 74.64160156 234.24731445 C70.01714387 240.6664624 66.05836372 247.37624537 62.39160156 254.37231445 C62.0794873 254.96383301 61.76737305 255.55535156 61.44580078 256.16479492 C52.37606633 273.63506834 48.29495306 292.45577248 47.76660156 312.05981445 C47.70859375 313.84548828 47.70859375 313.84548828 47.64941406 315.66723633 C47.55619162 318.56878498 47.47038809 321.47034412 47.39160156 324.37231445 C38.9417102 324.39556973 30.49183239 324.4132964 22.04191685 324.42412663 C18.11753261 324.42932675 14.19317039 324.43637178 10.26879883 324.44775391 C6.47570011 324.4586854 2.68262247 324.46461287 -1.1104908 324.4671917 C-2.55162958 324.46902756 -3.99276731 324.47261224 -5.43389702 324.47804451 C-16.34680506 324.5175132 -25.2195276 324.26814102 -35.60839844 320.37231445 C-35.60839844 239.52231445 -35.60839844 158.67231445 -35.60839844 75.37231445 C-36.59839844 75.37231445 -37.58839844 75.37231445 -38.60839844 75.37231445 C-38.60839844 155.89231445 -38.60839844 236.41231445 -38.60839844 319.37231445 C-49.59571391 315.70987596 -59.00065603 310.0933639 -67.60839844 302.37231445 C-68.51460938 301.56020508 -69.42082031 300.7480957 -70.35449219 299.91137695 C-85.75207083 285.34667705 -96.95076485 264.37187043 -97.73423958 242.92801857 C-97.7346166 241.71464506 -97.73499363 240.50127155 -97.73538208 239.25112915 C-97.73694207 238.56954502 -97.73850206 237.8879609 -97.74010932 237.18572271 C-97.74407171 234.92058622 -97.74094823 232.65551775 -97.73779297 230.39038086 C-97.73914915 228.75865134 -97.7409303 227.12692212 -97.74310303 225.49519348 C-97.74765228 221.0757155 -97.74589792 216.65626093 -97.74272394 212.23678255 C-97.74018653 207.60319742 -97.74254181 202.96961426 -97.74411011 198.33602905 C-97.74592813 190.55352419 -97.74353549 182.77102882 -97.73876953 174.98852539 C-97.73333145 166.00504183 -97.73508776 157.02158098 -97.74059594 148.03809798 C-97.74514208 140.31303737 -97.74577015 132.58798358 -97.74315727 124.86292207 C-97.74160227 120.25449335 -97.74137932 115.64607528 -97.74469376 111.03764725 C-97.74759416 106.70217775 -97.74555705 102.36673735 -97.7397995 98.03127098 C-97.73848334 96.4450644 -97.73884646 94.85885535 -97.74106216 93.27264977 C-97.77142449 69.31764357 -91.98951817 48.40036903 -75.60839844 30.37231445 C-74.79757812 29.46868164 -73.98675781 28.56504883 -73.15136719 27.6340332 C-53.32954827 6.65134642 -28.12635762 -0.13486649 0 0 Z " fill="#326DB3" transform="translate(463.6083984375,698.627685546875)"/>
<path d="M0 0 C1.80552886 -0.00243486 3.61105635 -0.00616086 5.4165802 -0.01106262 C10.26966315 -0.02037759 15.12254109 -0.01112762 19.97560787 0.00226951 C25.08019432 0.01368163 30.18477211 0.0094692 35.28936768 0.00752258 C43.85293888 0.00664299 52.41643042 0.01765232 60.97998047 0.03613281 C70.85486753 0.05732232 80.72963825 0.0608025 90.60454345 0.05457085 C100.14385103 0.04886125 109.68311801 0.05453991 119.22241974 0.0657444 C123.26516731 0.07036651 127.30788986 0.07127469 131.35063934 0.06915855 C136.11471965 0.06726415 140.87868283 0.07546747 145.64273643 0.09121895 C147.38249158 0.09543232 149.12225869 0.09633242 150.86201668 0.09352875 C181.22488317 0.05204785 203.73508638 9.56985198 225.33691406 31.05200195 C227.39160156 33.37231445 227.39160156 33.37231445 227.39160156 35.37231445 C226.30733222 36.35663718 225.17094742 37.28369466 224.01660156 38.18481445 C205.58725834 53.98139436 194.18343449 79.6375426 191.39160156 103.37231445 C189.49690741 129.90660585 193.80660388 157.9363594 210.16503906 179.7355957 C211.39160156 181.37231445 211.39160156 181.37231445 211.39160156 183.37231445 C208.70435452 183.85293569 206.01682124 184.33184942 203.32910156 184.80981445 C202.57693359 184.94452148 201.82476563 185.07922852 201.04980469 185.21801758 C200.30537109 185.35014648 199.5609375 185.48227539 198.79394531 185.6184082 C197.78062134 185.79907837 197.78062134 185.79907837 196.74682617 185.98339844 C193.63636017 186.49702675 190.51250472 186.92647114 187.39160156 187.37231445 C187.39160156 150.41231445 187.39160156 113.45231445 187.39160156 75.37231445 C186.40160156 75.37231445 185.41160156 75.37231445 184.39160156 75.37231445 C184.39160156 112.99231445 184.39160156 150.61231445 184.39160156 189.37231445 C178.78160156 191.68231445 173.17160156 193.99231445 167.39160156 196.37231445 C142.19064581 210.39542693 122.89184957 228.61425771 109.39160156 254.37231445 C109.0794873 254.96383301 108.76737305 255.55535156 108.44580078 256.16479492 C99.37310775 273.64076721 95.2968729 292.4510842 94.76660156 312.05981445 C94.58097656 318.15450195 94.58097656 318.15450195 94.39160156 324.37231445 C78.88160156 324.37231445 63.37160156 324.37231445 47.39160156 324.37231445 C47.16472656 319.66981445 46.93785156 314.96731445 46.70410156 310.12231445 C44.66759092 275.56487929 32.15048632 246.63829265 8.39160156 221.37231445 C7.86566406 220.78192383 7.33972656 220.1915332 6.79785156 219.58325195 C-4.89790949 206.99240715 -20.7834804 199.45863338 -35.60839844 191.37231445 C-35.60839844 153.09231445 -35.60839844 114.81231445 -35.60839844 75.37231445 C-36.59839844 75.37231445 -37.58839844 75.37231445 -38.60839844 75.37231445 C-38.60839844 113.32231445 -38.60839844 151.27231445 -38.60839844 190.37231445 C-50.60839844 187.37231445 -50.60839844 187.37231445 -54.67089844 186.30981445 C-59.59752665 185.07034562 -64.60496249 184.23687875 -69.60839844 183.37231445 C-69.34027344 182.90825195 -69.07214844 182.44418945 -68.79589844 181.96606445 C-56.68709351 160.61632944 -49.15987231 141.2384662 -49.17089844 116.30981445 C-49.17016327 115.58376007 -49.1694281 114.85770569 -49.16867065 114.10964966 C-49.2001551 102.24523443 -50.32821137 91.5077823 -54.60839844 80.37231445 C-54.86008789 79.68476074 -55.11177734 78.99720703 -55.37109375 78.28881836 C-60.57963717 64.30437065 -68.46051583 51.90659729 -79.08886719 41.4230957 C-80.60839844 39.37231445 -80.60839844 39.37231445 -80.53808594 37.3371582 C-78.68293664 33.4164015 -75.54610599 30.51084185 -72.60839844 27.37231445 C-72.03089844 26.71875977 -71.45339844 26.06520508 -70.85839844 25.3918457 C-52.28947992 5.34221601 -26.17203928 -0.12549549 0 0 Z " fill="#326DB3" transform="translate(875.6083984375,698.627685546875)"/>
<path d="M0 0 C1.85977586 -0.00571784 3.71954822 -0.01268751 5.57931519 -0.02079773 C10.58133302 -0.0385845 15.58317407 -0.03758876 20.5852139 -0.03185534 C24.77984953 -0.0287435 28.97445216 -0.0348777 33.16908306 -0.04089409 C43.07124662 -0.05488906 52.9733238 -0.05341906 62.87548828 -0.04199219 C73.05371413 -0.03050555 83.23167664 -0.04460742 93.40986782 -0.07138866 C102.18744102 -0.09361037 110.96493194 -0.1001688 119.74253124 -0.09431225 C124.96811838 -0.09095819 130.19353663 -0.09325434 135.41909981 -0.11056328 C140.33347772 -0.1261349 145.24746775 -0.12196462 150.1618309 -0.10325813 C151.95354455 -0.0996009 153.74528762 -0.10259586 155.53697395 -0.11314392 C181.02689401 -0.25162796 202.74978124 8.44531396 221.54467773 25.95874023 C225.82142285 30.42081097 229.39870437 35.31403234 232.88842773 40.40405273 C233.44401367 41.20456055 233.99959961 42.00506836 234.57202148 42.82983398 C237.7294788 47.70954074 240.03142538 52.82005327 242.13842773 58.21655273 C242.50810669 59.13936035 242.50810669 59.13936035 242.88525391 60.08081055 C254.44236701 91.25665247 246.88842773 157.63694125 246.88842773 171.40405273 C133.36842773 171.40405273 19.84842773 171.40405273 -97.11157227 171.40405273 C-97.11157227 70.071373 -97.11157227 70.071373 -92.36157227 58.21655273 C-92.09699219 57.54003662 -91.83241211 56.86352051 -91.55981445 56.16650391 C-82.36876119 33.34968692 -64.34641037 16.22778215 -42.23657227 6.02905273 C-28.43548944 0.59382517 -14.64005157 -0.04121405 0 0 Z " fill="#326DB3" transform="translate(1101.111572265625,908.595947265625)"/>
<path d="M0 0 C1.85977586 -0.00571784 3.71954822 -0.01268751 5.57931519 -0.02079773 C10.58133302 -0.0385845 15.58317407 -0.03758876 20.5852139 -0.03185534 C24.77984953 -0.0287435 28.97445216 -0.0348777 33.16908306 -0.04089409 C43.07124662 -0.05488906 52.9733238 -0.05341906 62.87548828 -0.04199219 C73.05371413 -0.03050555 83.23167664 -0.04460742 93.40986782 -0.07138866 C102.18744102 -0.09361037 110.96493194 -0.1001688 119.74253124 -0.09431225 C124.96811838 -0.09095819 130.19353663 -0.09325434 135.41909981 -0.11056328 C140.33347772 -0.1261349 145.24746775 -0.12196462 150.1618309 -0.10325813 C151.95354455 -0.0996009 153.74528762 -0.10259586 155.53697395 -0.11314392 C181.02689401 -0.25162796 202.74978124 8.44531396 221.54467773 25.95874023 C225.82142285 30.42081097 229.39870437 35.31403234 232.88842773 40.40405273 C233.44401367 41.20456055 233.99959961 42.00506836 234.57202148 42.82983398 C237.7294788 47.70954074 240.03142538 52.82005327 242.13842773 58.21655273 C242.50810669 59.13936035 242.50810669 59.13936035 242.88525391 60.08081055 C254.44236701 91.25665247 246.88842773 157.63694125 246.88842773 171.40405273 C133.36842773 171.40405273 19.84842773 171.40405273 -97.11157227 171.40405273 C-97.11157227 70.071373 -97.11157227 70.071373 -92.36157227 58.21655273 C-92.09699219 57.54003662 -91.83241211 56.86352051 -91.55981445 56.16650391 C-82.36876119 33.34968692 -64.34641037 16.22778215 -42.23657227 6.02905273 C-28.43548944 0.59382517 -14.64005157 -0.04121405 0 0 Z " fill="#326DB3" transform="translate(642.111572265625,908.595947265625)"/>
<path d="M0 0 C0.99435059 0.32145996 0.99435059 0.32145996 2.00878906 0.64941406 C27.44312603 8.92671842 47.54757658 26.38477375 60.0234375 49.9609375 C71.61463256 72.93378175 73.68440761 100.61813817 65.7109375 125.08984375 C56.80670385 150.79486394 39.77748314 171.42533017 15.5078125 183.77734375 C12.36559123 185.26137204 9.20310393 186.65338896 6 188 C5.33097656 188.30550781 4.66195312 188.61101562 3.97265625 188.92578125 C-16.49952412 197.6611755 -42.87496402 196.29012575 -63.31640625 188.38671875 C-89.9882114 177.45509593 -109.71623183 158.49604999 -121 132 C-130.84341312 106.48577786 -130.89935807 79.51999357 -119.88598633 54.38061523 C-115.87562499 45.75570959 -111.13616099 38.29026203 -105 31 C-104.46246094 30.30132812 -103.92492187 29.60265625 -103.37109375 28.8828125 C-79.73149393 -0.62225193 -35.21167206 -11.98536829 0 0 Z " fill="#326DB3" transform="translate(473,79)"/>
<path d="M0 0 C17.71684166 12.59062511 31.31003196 31.23917369 35 53 C36.84203181 76.44829231 33.49055342 98.01304484 18.6875 116.875 C4.88317893 132.58742688 -11.9439668 143.46618132 -33 146 C-57.05103841 147.35040861 -78.23589603 143.36126876 -96.6887207 127.0637207 C-110.93333894 114.02059136 -121.77854458 96.00142253 -123.19287109 76.31542969 C-123.90227865 50.83694968 -119.625468 31.213348 -102 12 C-91.97307968 1.41511685 -79.35411569 -6.80760739 -65 -10 C-63.82308594 -10.34417969 -62.64617188 -10.68835938 -61.43359375 -11.04296875 C-41.0052718 -16.12748831 -17.52042598 -11.23617249 0 0 Z " fill="#326DB3" transform="translate(761,746)"/>
<path d="M0 0 C17.71324987 12.58807258 31.31720187 31.24068778 35 53 C36.09096814 66.96704139 35.93796942 80.78319077 31 94 C30.49146484 95.52173828 30.49146484 95.52173828 29.97265625 97.07421875 C22.68414519 116.91660652 6.55562696 131.57041777 -12.234375 140.45703125 C-30.49534535 148.22796142 -53.47491054 149.28213428 -72 142 C-91.80860346 133.96536278 -107.35837043 120.05306574 -116.53125 100.5390625 C-124.55806809 81.19784656 -126.96056653 57.62091941 -118.83447266 37.86865234 C-109.47991657 16.92079621 -93.55081957 0.23457522 -72.03515625 -8.15625 C-69.69587713 -8.87713725 -67.38869816 -9.46874732 -65 -10 C-63.82308594 -10.34417969 -62.64617187 -10.68835938 -61.43359375 -11.04296875 C-41.0052718 -16.12748831 -17.52042598 -11.23617249 0 0 Z " fill="#326DB3" transform="translate(1220,746)"/>
<path d="M0 0 C0.85851563 0.00515625 1.71703125 0.0103125 2.6015625 0.015625 C20.33365021 0.97411623 37.85776773 12.89127895 50 25 C66.31649916 43.22049242 71.14459864 63.19051635 70.21557617 86.92675781 C69.61602074 95.47398741 68.04923499 103.22203128 64.4375 111 C64.08743896 111.76691162 63.73737793 112.53382324 63.37670898 113.32397461 C54.28035558 132.52112495 38.60406178 146.24331877 19 154 C17.96230469 154.41636719 16.92460938 154.83273437 15.85546875 155.26171875 C-1.17486598 160.91206264 -23.78733859 160.97542102 -40 153 C-41.13050781 152.46890625 -42.26101563 151.9378125 -43.42578125 151.390625 C-50.67021805 147.74751722 -56.94537425 143.37609011 -63 138 C-64.02867188 137.11248047 -64.02867188 137.11248047 -65.078125 136.20703125 C-74.38084998 127.61849185 -80.97669006 115.91215296 -85 104 C-85.47759766 102.61748047 -85.47759766 102.61748047 -85.96484375 101.20703125 C-91.71743167 81.1392476 -88.77938193 58.61004228 -79.04296875 40.3828125 C-67.57539167 21.3944344 -51.48616659 8.8287222 -30.4375 1.8125 C-20.41469465 -0.55652672 -10.23107736 -0.19199059 0 0 Z " fill="#326DB3" transform="translate(1391,524)"/>
<path d="M0 0 C0.85851562 0.00515625 1.71703125 0.0103125 2.6015625 0.015625 C20.33365021 0.97411623 37.85776773 12.89127895 50 25 C66.31649916 43.22049242 71.14459864 63.19051635 70.21557617 86.92675781 C69.61602074 95.47398741 68.04923499 103.22203128 64.4375 111 C64.08743896 111.76691162 63.73737793 112.53382324 63.37670898 113.32397461 C54.28035558 132.52112495 38.60406178 146.24331877 19 154 C17.96230469 154.41636719 16.92460938 154.83273437 15.85546875 155.26171875 C-1.17486598 160.91206264 -23.78733859 160.97542102 -40 153 C-41.13050781 152.46890625 -42.26101563 151.9378125 -43.42578125 151.390625 C-50.67021805 147.74751722 -56.94537425 143.37609011 -63 138 C-64.02867187 137.11248047 -64.02867187 137.11248047 -65.078125 136.20703125 C-74.38084998 127.61849185 -80.97669006 115.91215296 -85 104 C-85.47759766 102.61748047 -85.47759766 102.61748047 -85.96484375 101.20703125 C-91.71743167 81.1392476 -88.77938193 58.61004228 -79.04296875 40.3828125 C-67.57539167 21.3944344 -51.48616659 8.8287222 -30.4375 1.8125 C-20.41469465 -0.55652672 -10.23107736 -0.19199059 0 0 Z " fill="#326DB3" transform="translate(959,524)"/>
<path d="M0 0 C0.85851562 0.00515625 1.71703125 0.0103125 2.6015625 0.015625 C20.33365021 0.97411623 37.85776773 12.89127895 50 25 C66.37567336 43.28657172 71.12251604 63.27518945 70.22094727 87.08349609 C68.52947364 109.41094789 56.92101013 127.93424716 40.3125 142.25 C20.85492884 157.02790214 -1.11702706 159.98308858 -25 158 C-30.37356226 157.17314107 -35.12653253 155.39738276 -40 153 C-41.13050781 152.46890625 -42.26101563 151.9378125 -43.42578125 151.390625 C-50.67021805 147.74751722 -56.94537425 143.37609011 -63 138 C-64.02867187 137.11248047 -64.02867187 137.11248047 -65.078125 136.20703125 C-74.38084998 127.61849185 -80.97669006 115.91215296 -85 104 C-85.47759766 102.61748047 -85.47759766 102.61748047 -85.96484375 101.20703125 C-91.71743167 81.1392476 -88.77938193 58.61004228 -79.04296875 40.3828125 C-67.57539167 21.3944344 -51.48616659 8.8287222 -30.4375 1.8125 C-20.41469465 -0.55652672 -10.23107736 -0.19199059 0 0 Z " fill="#326DB3" transform="translate(547,524)"/>
<path d="M0 0 C3.56171146 1.50267133 7.17442038 2.83476913 10.80078125 4.171875 C17.58233363 6.69059985 24.27442412 9.38739259 30.92578125 12.234375 C30.92578125 13.224375 30.92578125 14.214375 30.92578125 15.234375 C30.01054688 15.43546875 29.0953125 15.6365625 28.15234375 15.84375 C24.22965214 17.0860775 20.7618784 18.18779399 17.92578125 21.234375 C16.51437879 24.49162956 16.03830561 27.6558331 15.67578125 31.171875 C15.52036865 32.47753418 15.52036865 32.47753418 15.36181641 33.80957031 C15.15666691 37.60879504 15.15002048 40.1719988 17.44165039 43.31030273 C19.27539568 45.17093504 19.27539568 45.17093504 21.21411133 46.74560547 C24.7461961 49.81772827 25.67511785 53.45159555 26.30859375 57.95703125 C27.05432443 70.52097204 19.45587228 79.80682056 11.92578125 89.234375 C10.76052018 90.29841636 9.59401422 91.36109742 8.42578125 92.421875 C4.54833501 96.80783878 5.15343019 102.77738673 5.48046875 108.29296875 C6.08684575 113.65993709 7.29842744 117.55913618 9.92578125 122.234375 C10.40982422 123.09587158 10.89386719 123.95736816 11.39257812 124.8449707 C14.18173607 129.02831895 16.21278878 131.80840884 21.22460938 133.0546875 C24.45635134 133.22863878 27.63104685 133.26438894 30.86453247 133.12927246 C34.34190098 132.99026627 37.81745611 133.02291819 41.296875 133.05078125 C41.9714122 133.05342987 42.6459494 133.05607849 43.34092712 133.05880737 C51.30340139 133.15440652 57.62083273 135.2184138 64.92578125 138.234375 C67.2580799 139.00833332 69.5914188 139.77916383 71.92578125 140.546875 C79.92792329 143.45176218 87.43314751 147.22024586 94.92578125 151.234375 C95.93511719 151.77449219 96.94445313 152.31460938 97.984375 152.87109375 C102.9895522 155.70463389 106.82887589 158.32204235 109.92578125 163.234375 C109.59715661 166.74898023 108.03620907 168.53263103 105.64453125 171.02734375 C104.97212402 171.73568359 104.2997168 172.44402344 103.60693359 173.17382812 C102.88715332 173.91568359 102.16737305 174.65753906 101.42578125 175.421875 C100.69182129 176.18564453 99.95786133 176.94941406 99.20166016 177.73632812 C97.75241174 179.24172409 96.30018486 180.74425942 94.84472656 182.24365234 C93.32578139 183.81941302 91.83531401 185.42261969 90.35546875 187.03515625 C81.29579192 196.73211073 69.20552378 203.43171496 56.92578125 208.234375 C56.26578125 208.234375 55.60578125 208.234375 54.92578125 208.234375 C54.65765625 208.8325 54.38953125 209.430625 54.11328125 210.046875 C52.92660719 212.23285354 51.82979012 213.64770094 49.92578125 215.234375 C49.26578125 215.234375 48.60578125 215.234375 47.92578125 215.234375 C48.03582286 218.81833185 48.16641422 222.40125417 48.30078125 225.984375 C48.33171875 227.00015625 48.36265625 228.0159375 48.39453125 229.0625 C48.43320313 230.0421875 48.471875 231.021875 48.51171875 232.03125 C48.54313965 232.93198242 48.57456055 233.83271484 48.60693359 234.76074219 C48.93949611 237.34077547 49.69361483 238.96969736 50.92578125 241.234375 C51.51908013 245.97306087 51.50552755 250.02657021 49.42578125 254.359375 C48.93078125 254.978125 48.43578125 255.596875 47.92578125 256.234375 C46.93578125 255.904375 45.94578125 255.574375 44.92578125 255.234375 C44.59578125 254.574375 44.26578125 253.914375 43.92578125 253.234375 C43.26578125 253.234375 42.60578125 253.234375 41.92578125 253.234375 C41.59578125 253.894375 41.26578125 254.554375 40.92578125 255.234375 C39.93578125 255.234375 38.94578125 255.234375 37.92578125 255.234375 C36.23828125 253.234375 36.23828125 253.234375 34.92578125 251.234375 C33.60578125 251.564375 32.28578125 251.894375 30.92578125 252.234375 C30.52614486 248.38998546 30.59252699 246.70631689 32.859375 243.49609375 C33.68566406 242.64660156 34.51195312 241.79710937 35.36328125 240.921875 C36.18699219 240.05949219 37.01070312 239.19710937 37.859375 238.30859375 C39.92578125 236.234375 39.92578125 236.234375 40.92578125 235.234375 C40.99903293 232.37169933 41.0181633 229.533656 40.98828125 226.671875 C40.98376953 225.86556641 40.97925781 225.05925781 40.97460938 224.22851562 C40.96278643 222.23043744 40.94485039 220.23239717 40.92578125 218.234375 C38.28578125 217.244375 35.64578125 216.254375 32.92578125 215.234375 C32.92578125 219.524375 32.92578125 223.814375 32.92578125 228.234375 C32.26578125 228.234375 31.60578125 228.234375 30.92578125 228.234375 C30.6628125 228.82734375 30.39984375 229.4203125 30.12890625 230.03125 C28.17315189 233.61256643 25.35608337 236.06114011 21.92578125 238.234375 C18.48828125 238.609375 18.48828125 238.609375 15.92578125 238.234375 C15.59578125 236.914375 15.26578125 235.594375 14.92578125 234.234375 C13.60578125 234.234375 12.28578125 234.234375 10.92578125 234.234375 C10.92578125 232.914375 10.92578125 231.594375 10.92578125 230.234375 C9.60578125 229.904375 8.28578125 229.574375 6.92578125 229.234375 C7.25578125 228.244375 7.58578125 227.254375 7.92578125 226.234375 C13.88537575 223.77280336 19.53699319 224.07662715 25.92578125 224.234375 C25.26578125 220.934375 24.60578125 217.634375 23.92578125 214.234375 C22.54390625 214.275625 21.16203125 214.316875 19.73828125 214.359375 C15.92394526 214.359375 13.42278258 213.8080256 9.92578125 212.234375 C8.51332281 211.92296684 7.09592533 211.63360972 5.67578125 211.359375 C-3.93296847 209.27190201 -11.87915631 205.0322679 -17.73046875 196.9453125 C-26.25013688 183.25298872 -29.33924456 169.98014763 -31.19921875 154.171875 C-31.28826477 153.42125793 -31.37731079 152.67064087 -31.46905518 151.89727783 C-32.58942009 142.301775 -33.44759921 132.78205723 -33.44921875 123.109375 C-33.45066895 122.21210693 -33.45211914 121.31483887 -33.45361328 120.39038086 C-33.38755459 116.53114299 -33.12066967 113.02915815 -32.0859375 109.3046875 C-30.70363279 104.31664222 -30.59244264 99.3866652 -30.51171875 94.234375 C-30.46208984 93.28820312 -30.41246094 92.34203125 -30.36132812 91.3671875 C-30.28379696 86.0359969 -30.86108666 82.78311045 -34.27734375 78.58203125 C-36.54284711 76.33288428 -37.72824883 75.33752438 -40.8125 74.41796875 C-41.66199219 74.50175781 -42.51148438 74.58554688 -43.38671875 74.671875 C-44.33417969 74.74277344 -45.28164062 74.81367188 -46.2578125 74.88671875 C-47.18722656 75.00144531 -48.11664062 75.11617188 -49.07421875 75.234375 C-50.6991987 75.40123708 -52.32419813 75.56790947 -53.94921875 75.734375 C-54.75488281 75.82460937 -55.56054688 75.91484375 -56.390625 76.0078125 C-63.28713569 76.59005067 -70.30701894 76.8104696 -77.07421875 75.234375 C-78.41066735 69.03811332 -78.41066735 69.03811332 -76.94921875 65.546875 C-71.26410953 58.53524029 -63.79956285 56.35300886 -55.07421875 55.234375 C-55.13222656 54.57050781 -55.19023438 53.90664062 -55.25 53.22265625 C-55.47697767 48.780379 -55.53178177 46.02327677 -53.26171875 42.109375 C-48.45122088 39.27967037 -44.60086997 39.9014442 -39.07421875 40.234375 C-39.40421875 33.634375 -39.73421875 27.034375 -40.07421875 20.234375 C-44.69421875 17.924375 -49.31421875 15.614375 -54.07421875 13.234375 C-53.07421875 11.234375 -53.07421875 11.234375 -50.95703125 10.33984375 C-50.04695313 10.03691406 -49.136875 9.73398438 -48.19921875 9.421875 C-44.30709616 8.06613564 -40.55851205 6.60316662 -36.82421875 4.859375 C-34.90895171 3.98131561 -32.99214517 3.10661027 -31.07421875 2.234375 C-30.4802832 1.96238281 -29.88634766 1.69039062 -29.27441406 1.41015625 C-18.17563093 -3.6032951 -11.38431037 -4.88657801 0 0 Z " fill="#FDFEFE" transform="translate(1407.07421875,165.765625)"/>
<path d="M0 0 C2.05843067 0.00066061 4.11686134 0.00130331 6.17529202 0.00194407 C41.2174965 0.01297296 76.25969306 0.03320374 111.30188656 0.06315851 C111.30188656 1.38315851 111.30188656 2.70315851 111.30188656 4.06315851 C73.91347836 4.23322492 36.52504248 4.39665027 -0.86342078 4.55411416 C-3.00379284 4.56312978 -5.14416484 4.57215697 -7.28453684 4.58118439 C-83.10991423 4.90074825 -158.93439391 5.16388569 -234.76061344 5.12565851 C-235.62869523 5.12523428 -236.49677701 5.12481005 -237.3911643 5.12437296 C-258.49349359 5.11387435 -279.5958049 5.09501919 -300.69811344 5.06315851 C-300.69811344 3.74315851 -300.69811344 2.42315851 -300.69811344 1.06315851 C-277.03155796 0.87980169 -253.36488517 0.71589068 -229.69811344 0.56315851 C-228.31973962 0.5542357 -228.31973962 0.5542357 -226.91351986 0.54513264 C-151.27565785 0.05692147 -75.63907081 -0.02428618 0 0 Z " fill="#A9C0E0" transform="translate(1044.6981134414673,344.9368414878845)"/>
<path d="M0 0 C2.05843067 0.00066061 4.11686134 0.00130331 6.17529202 0.00194407 C41.2174965 0.01297296 76.25969306 0.03320374 111.30188656 0.06315851 C111.30188656 1.38315851 111.30188656 2.70315851 111.30188656 4.06315851 C73.91347836 4.23322492 36.52504248 4.39665027 -0.86342078 4.55411416 C-3.00379284 4.56312978 -5.14416484 4.57215697 -7.28453684 4.58118439 C-83.10991423 4.90074825 -158.93439391 5.16388569 -234.76061344 5.12565851 C-235.62869523 5.12523428 -236.49677701 5.12481005 -237.3911643 5.12437296 C-258.49349359 5.11387435 -279.5958049 5.09501919 -300.69811344 5.06315851 C-300.69811344 3.74315851 -300.69811344 2.42315851 -300.69811344 1.06315851 C-277.03155796 0.87980169 -253.36488517 0.71589068 -229.69811344 0.56315851 C-228.31973962 0.5542357 -228.31973962 0.5542357 -226.91351986 0.54513264 C-151.27565785 0.05692147 -75.63907081 -0.02428618 0 0 Z " fill="#A9C0E0" transform="translate(1044.6981134414673,328.9368414878845)"/>
<path d="M0 0 C1.46527036 0.00063635 1.46527036 0.00063635 2.96014214 0.00128555 C27.14010547 0.01197229 51.32005427 0.03127499 75.5 0.0625 C75.5 1.3825 75.5 2.7025 75.5 4.0625 C38.11159181 4.23256641 0.72315592 4.39599175 -36.66530734 4.55345565 C-38.80567939 4.56247127 -40.9460514 4.57149845 -43.0864234 4.58052588 C-118.91180079 4.90008974 -194.73628047 5.16322718 -270.5625 5.125 C-271.43058178 5.12457577 -272.29866357 5.12415154 -273.19305086 5.12371445 C-294.29538015 5.11321583 -315.39769146 5.09436068 -336.5 5.0625 C-336.5 3.7425 -336.5 2.4225 -336.5 1.0625 C-301.58337099 0.88774675 -266.666703 0.72177916 -231.75 0.5625 C-229.79717039 0.55357719 -229.79717039 0.55357719 -227.80488968 0.54447412 C-151.86983507 0.19804944 -75.93598974 -0.03399998 0 0 Z " fill="#A8C0E0" transform="translate(1080.5,177.9375)"/>
<path d="M0 0 C1.46527036 0.00063635 1.46527036 0.00063635 2.96014214 0.00128555 C27.14010547 0.01197229 51.32005427 0.03127499 75.5 0.0625 C75.5 1.3825 75.5 2.7025 75.5 4.0625 C38.11159181 4.23256641 0.72315592 4.39599175 -36.66530734 4.55345565 C-38.80567939 4.56247127 -40.9460514 4.57149845 -43.0864234 4.58052588 C-118.91180079 4.90008974 -194.73628047 5.16322718 -270.5625 5.125 C-271.43058178 5.12457577 -272.29866357 5.12415154 -273.19305086 5.12371445 C-294.29538015 5.11321583 -315.39769146 5.09436068 -336.5 5.0625 C-336.5 3.7425 -336.5 2.4225 -336.5 1.0625 C-301.58337099 0.88774675 -266.666703 0.72177916 -231.75 0.5625 C-229.79717039 0.55357719 -229.79717039 0.55357719 -227.80488968 0.54447412 C-151.86983507 0.19804944 -75.93598974 -0.03399998 0 0 Z " fill="#A8C0E0" transform="translate(1080.5,161.9375)"/>
<path d="M0 0 C0 1.32 0 2.64 0 4 C-81.3934837 4.61229914 -162.78730825 5.11368958 -244.18212521 5.51238817 C-252.03647916 5.55088638 -259.89082927 5.59010477 -267.74517822 5.62960815 C-315.83036049 5.87086807 -363.91411061 6.0843352 -412 6 C-412 4.68 -412 3.36 -412 2 C-336.9695216 1.33253636 -261.93852014 0.85609127 -186.90599549 0.48761183 C-179.10682111 0.4492786 -171.30765177 0.41002278 -163.50848389 0.37039185 C-109.00526974 0.09430421 -54.50393455 -0.07125225 0 0 Z " fill="#A7BFDF" transform="translate(1156,214)"/>
<path d="M0 0 C1.93551955 0.00063635 1.93551955 0.00063635 3.91014051 0.00128555 C36.96093421 0.01233673 70.01171824 0.03238089 103.0625 0.0625 C103.0625 1.0525 103.0625 2.0425 103.0625 3.0625 C39.5511479 3.77854528 -23.95874386 4.29232468 -87.47346866 4.58015925 C-95.25675209 4.61543529 -103.04002859 4.65201501 -110.82330322 4.68917847 C-176.86160389 5.00347547 -242.89839987 5.22624435 -308.9375 5.0625 C-308.9375 3.7425 -308.9375 2.4225 -308.9375 1.0625 C-283.20842327 0.8813619 -257.47925118 0.71681019 -231.75 0.5625 C-230.76087286 0.55655146 -229.77174571 0.55060292 -228.75264502 0.54447412 C-152.5015977 0.08708955 -76.25225061 -0.02581712 0 0 Z " fill="#A7BFDF" transform="translate(1052.9375,196.9375)"/>
<path d="M0 0 C1.93551955 0.00063635 1.93551955 0.00063635 3.91014051 0.00128555 C36.96093421 0.01233673 70.01171824 0.03238089 103.0625 0.0625 C103.0625 1.0525 103.0625 2.0425 103.0625 3.0625 C38.34873054 3.87065075 -26.35395715 4.20160567 -91.07253146 4.13452661 C-102.45526505 4.1229526 -113.8379996 4.11775501 -125.2207377 4.11282361 C-148.45966503 4.10262653 -171.6985818 4.08527885 -194.9375 4.0625 C-194.9375 4.7225 -194.9375 5.3825 -194.9375 6.0625 C-195.845 5.8975 -196.7525 5.7325 -197.6875 5.5625 C-204.05891743 4.65599752 -210.72137377 4.54274652 -217.07435608 5.56944275 C-221.37164474 6.11791036 -225.48753187 6.1543837 -229.81030273 6.08422852 C-230.66963913 6.07462097 -231.52897552 6.06501343 -232.41435242 6.05511475 C-235.2333551 6.02233308 -238.05219253 5.98192251 -240.87109375 5.94140625 C-242.83406505 5.91708473 -244.79704234 5.89324221 -246.76002502 5.86985779 C-251.91062271 5.80721897 -257.06111351 5.73809572 -262.21160889 5.66760254 C-267.47370564 5.59673597 -272.73587779 5.53202888 -277.99804688 5.46679688 C-288.31128079 5.33804516 -298.62441226 5.20244003 -308.9375 5.0625 C-308.9375 3.7425 -308.9375 2.4225 -308.9375 1.0625 C-283.20842327 0.8813619 -257.47925118 0.71681019 -231.75 0.5625 C-230.76087286 0.55655146 -229.77174571 0.55060292 -228.75264502 0.54447412 C-152.5015977 0.08708955 -76.25225061 -0.02581712 0 0 Z " fill="#A7BEDF" transform="translate(1052.9375,363.9375)"/>
<path d="M0 0 C0 1.32 0 2.64 0 4 C-46.99500277 4.38119036 -93.99023907 4.7057913 -140.98603821 4.97148895 C-145.10984315 4.99484299 -149.23364398 5.01885191 -153.35744411 5.04303825 C-170.84638132 5.14529894 -188.33522673 5.2330922 -205.82441998 5.2764225 C-212.82282185 5.29396061 -219.82105977 5.31768342 -226.81936646 5.35888672 C-233.35919416 5.39730446 -239.89884506 5.41537047 -246.43880081 5.41895103 C-248.8284191 5.42346002 -251.21803545 5.43478725 -253.60758591 5.45334816 C-256.84471865 5.47736903 -260.0809232 5.47693536 -263.31811523 5.4699707 C-264.73968477 5.48918957 -264.73968477 5.48918957 -266.18997288 5.50879669 C-267.05137347 5.50185036 -267.91277407 5.49490402 -268.80027771 5.48774719 C-269.54442649 5.49013555 -270.28857527 5.4925239 -271.05527401 5.49498463 C-273.77755475 4.80209158 -274.54522428 3.31528369 -276 1 C-251.38348069 0.8671014 -226.76694929 0.7366604 -202.15040302 0.60884857 C-190.71053281 0.54939916 -179.27066723 0.48924734 -167.83081055 0.42724609 C-111.88671694 0.12447227 -55.94496464 -0.08473937 0 0 Z " fill="#A7BFDF" transform="translate(1156,381)"/>
<path d="M0 0 C0.99 0 1.98 0 3 0 C3 31.68 3 63.36 3 96 C2.01 96 1.02 96 0 96 C0 64.32 0 32.64 0 0 Z " fill="#020407" transform="translate(1286,984)"/>
<path d="M0 0 C0.99 0 1.98 0 3 0 C3 31.68 3 63.36 3 96 C2.01 96 1.02 96 0 96 C0 64.32 0 32.64 0 0 Z " fill="#020407" transform="translate(1063,984)"/>
<path d="M0 0 C0.99 0 1.98 0 3 0 C3 31.68 3 63.36 3 96 C2.01 96 1.02 96 0 96 C0 64.32 0 32.64 0 0 Z " fill="#020406" transform="translate(827,984)"/>
<path d="M0 0 C0.99 0 1.98 0 3 0 C3 31.68 3 63.36 3 96 C2.01 96 1.02 96 0 96 C0 64.32 0 32.64 0 0 Z " fill="#020508" transform="translate(604,984)"/>
<path d="M0 0 C18.15 0 36.3 0 55 0 C50.87791665 4.12208335 45.60594957 5.18926622 39.9609375 5.2487793 C38.09852028 5.20689574 36.23642811 5.14795826 34.375 5.07421875 C33.38749756 5.04777786 32.39999512 5.02133698 31.38256836 4.99409485 C28.25438991 4.90691016 25.12744868 4.79756038 22 4.6875 C19.86853274 4.62418107 17.73702174 4.56231714 15.60546875 4.50195312 C10.40302138 4.35146335 5.2014066 4.18281098 0 4 C0 2.68 0 1.36 0 0 Z " fill="#A6BEDF" transform="translate(744,383)"/>
<path d="M0 0 C3.15093793 0.78773448 4.43309455 2.17533428 6.5 4.625 C6.17 5.285 5.84 5.945 5.5 6.625 C4.9225 6.13 4.345 5.635 3.75 5.125 C1.39599371 3.25519987 1.39599371 3.25519987 -2.5 3.625 C-3.82 6.925 -5.14 10.225 -6.5 13.625 C-7.82 13.625 -9.14 13.625 -10.5 13.625 C-10.5 12.965 -10.5 12.305 -10.5 11.625 C-9.51 11.625 -8.52 11.625 -7.5 11.625 C-7.4175 10.92375 -7.335 10.2225 -7.25 9.5 C-6.12056647 5.1705048 -4.61508344 1.15377086 0 0 Z " fill="#C9DFFD" transform="translate(1378.5,202.375)"/>
<path d="M0 0 C0.99 0 1.98 0 3 0 C3 0.66 3 1.32 3 2 C3.99 2 4.98 2 6 2 C5.67 3.32 5.34 4.64 5 6 C4.01 5.67 3.02 5.34 2 5 C2 4.01 2 3.02 2 2 C1.34 2 0.68 2 0 2 C0 1.34 0 0.68 0 0 Z " fill="#C0D9FB" transform="translate(1354,210)"/>
</svg>