<?xml version="1.0" standalone="no"?>
<!DOCTYPE svg PUBLIC "-//W3C//DTD SVG 20010904//EN"
 "http://www.w3.org/TR/2001/REC-SVG-20010904/DTD/svg10.dtd">
<svg version="1.0" xmlns="http://www.w3.org/2000/svg"
 width="48.000000pt" height="48.000000pt" viewBox="0 0 576.000000 576.000000"
 preserveAspectRatio="xMidYMid meet">

<g transform="translate(0.000000,576.000000) scale(0.100000,-0.100000)"
fill="#326fb4" stroke="none">
<path d="M2540 5754 c-8 -1 -62 -10 -120 -19 -186 -29 -497 -116 -589 -166
-20 -11 -41 -19 -48 -19 -19 0 -242 -108 -260 -125 -8 -8 -18 -15 -23 -15 -20
0 -354 -215 -405 -260 -11 -10 -60 -54 -110 -98 -140 -123 -312 -306 -406
-432 -298 -396 -497 -871 -564 -1344 -20 -140 -20 -702 0 -842 84 -590 362
-1158 780 -1593 358 -372 837 -650 1346 -781 222 -58 248 -60 715 -60 474 0
489 1 751 70 1157 306 2022 1327 2143 2529 13 133 13 447 -1 587 -53 549 -278
1098 -628 1528 -135 166 -434 452 -512 490 -11 5 -19 13 -19 18 0 4 -4 8 -9 8
-10 0 -101 58 -111 70 -3 4 -31 22 -64 41 -32 19 -79 46 -105 62 -75 45 -253
133 -296 147 -22 7 -44 16 -50 20 -17 13 -175 67 -285 99 -120 34 -270 65
-383 81 -69 9 -707 13 -747 4z m750 -59 c235 -37 521 -116 685 -190 138 -62
334 -163 373 -193 13 -9 47 -30 75 -46 55 -31 225 -153 267 -192 14 -12 56
-51 94 -86 503 -461 798 -1021 903 -1722 24 -157 24 -596 0 -754 -51 -339
-134 -608 -276 -892 -159 -319 -326 -547 -582 -795 -455 -440 -1032 -711
-1674 -787 -156 -18 -491 -15 -645 6 -508 69 -945 246 -1350 547 -168 125
-425 382 -551 551 -300 405 -478 843 -551 1358 -18 127 -18 583 0 710 70 495
240 925 523 1322 158 222 388 456 604 615 55 40 105 77 111 82 5 4 32 21 60
36 27 15 62 37 79 49 16 11 46 29 65 39 19 9 46 24 60 32 14 8 39 20 55 28 17
8 48 24 70 35 222 116 580 219 900 258 150 18 563 12 705 -11z"/>
<path d="M2655 5624 c-84 -9 -262 -35 -300 -45 -22 -6 -78 -19 -125 -29 -278
-60 -680 -244 -933 -426 -37 -27 -82 -59 -100 -72 -18 -12 -36 -28 -42 -35 -5
-7 -23 -23 -40 -36 -16 -12 -74 -64 -128 -114 -338 -314 -617 -771 -746 -1222
-72 -248 -100 -430 -108 -696 -9 -301 23 -565 102 -839 257 -892 923 -1574
1812 -1855 139 -44 369 -93 361 -78 -71 143 -91 206 -109 357 -16 125 -1 307
47 601 59 357 66 423 66 590 0 172 -13 257 -55 362 -35 86 -83 113 -262 147
-16 4 -190 11 -385 16 -443 12 -540 28 -605 100 -59 65 11 219 136 300 90 58
177 84 452 135 76 14 148 30 161 35 20 7 31 3 65 -27 48 -40 172 -203 227
-298 21 -35 40 -63 42 -60 13 13 -159 286 -225 356 -25 27 -44 51 -42 53 2 2
22 13 45 24 22 11 46 28 53 36 20 24 34 20 82 -22 24 -21 66 -53 92 -72 39
-28 47 -38 41 -55 -3 -11 -8 -54 -11 -95 -6 -95 19 -167 79 -229 155 -162 419
-111 516 98 38 82 38 193 -1 273 -55 112 -153 173 -277 172 -92 0 -149 -23
-220 -90 -47 -44 -52 -46 -75 -34 -34 18 -140 109 -140 120 0 17 156 189 204
224 58 43 238 105 391 136 366 74 764 0 1015 -190 181 -136 323 -350 381 -578
22 -83 25 -112 21 -202 -10 -216 -59 -294 -392 -624 -230 -229 -244 -245 -284
-326 -51 -106 -71 -195 -71 -330 0 -219 71 -494 193 -752 l42 -87 115 38 c877
289 1549 1009 1794 1921 102 383 115 851 34 1245 -92 451 -293 871 -579 1210
-140 166 -351 361 -516 477 -117 83 -348 209 -533 292 -85 38 -315 113 -399
131 -36 7 -86 19 -111 25 -111 28 -257 42 -480 45 -129 1 -253 1 -275 -1z
m330 -684 c22 -11 48 -19 57 -20 9 0 19 -4 22 -9 3 -4 26 -14 51 -21 25 -7 48
-16 50 -21 3 -4 22 -13 43 -19 29 -9 789 -309 800 -315 1 -1 -5 -61 -14 -134
-10 -82 -12 -136 -6 -144 5 -7 6 -23 2 -37 -5 -20 -12 -25 -35 -25 -27 0 -30
3 -28 29 1 16 7 32 13 36 12 7 36 177 27 187 -6 5 -168 -54 -781 -287 -131
-49 -248 -90 -261 -90 -12 0 -83 27 -156 59 -74 32 -188 82 -254 111 -66 29
-138 60 -160 70 -22 10 -89 39 -150 65 -60 26 -135 59 -165 74 -30 15 -83 38
-118 50 -34 13 -65 28 -68 33 -13 20 34 48 141 86 61 22 182 68 270 102 88 34
210 80 270 101 61 22 124 46 140 53 17 8 42 18 58 21 15 4 30 11 33 16 3 5 14
9 25 9 10 0 36 9 56 20 47 25 86 25 138 0z m-380 -814 l290 -125 -1 -48 c-1
-26 -7 -100 -13 -163 -6 -63 -14 -152 -18 -198 -3 -45 -10 -85 -15 -88 -5 -3
-77 21 -161 54 -84 33 -224 88 -312 122 -88 34 -162 63 -164 65 -6 6 40 479
50 502 7 19 12 21 31 14 13 -5 154 -66 313 -135z m1015 35 c1 -101 -24 -457
-32 -467 -5 -7 -19 -14 -31 -16 -12 -3 -98 -29 -192 -57 -329 -101 -436 -133
-440 -129 -2 2 5 114 16 248 15 178 24 248 34 255 8 5 150 62 317 125 337 130
328 129 328 41z m-1481 -971 c19 -5 42 -17 52 -26 17 -16 15 -20 -50 -94 -95
-108 -148 -154 -215 -190 -77 -40 -93 -39 -102 6 -15 81 16 173 78 230 85 77
152 99 237 74z m516 -276 c128 -60 187 -208 138 -350 -23 -70 -110 -155 -182
-179 -103 -34 -212 -6 -283 73 -46 51 -53 65 -68 132 -30 137 56 286 193 337
58 21 143 16 202 -13z"/>
</g>
</svg>
